<svg xmlns="http://www.w3.org/2000/svg" xmlns:xlink="http://www.w3.org/1999/xlink" width="105.129" height="98.975" viewBox="0 0 105.129 98.975">
  <defs>
    <style>
      .cls-1, .cls-2 {
        fill: #607ce6;
      }

      .cls-2, .cls-3, .cls-4 {
        fill-rule: evenodd;
      }

      .cls-3 {
        fill: url(#linear-gradient);
      }

      .cls-4 {
        fill: #7786c2;
      }
    </style>
    <linearGradient id="linear-gradient" x1="0.179" y1="-0.179" x2="0.821" y2="1.179" gradientUnits="objectBoundingBox">
      <stop offset="0" stop-color="#8696d4"/>
      <stop offset="0.51" stop-color="#6f88eb"/>
      <stop offset="1" stop-color="#839cfb"/>
    </linearGradient>
  </defs>
  <g id="Group_135" data-name="Group 135" transform="translate(138.818 202.497) rotate(-130)">
    <path id="Path_655" data-name="Path 655" class="cls-1" d="M.269,0a19.03,19.03,0,0,0,0,6.205C.586,7.635,6.516,19.9,16.992,22.44s28.2,0,28.2,0Z" transform="translate(137.052 49.264) rotate(-5)"/>
    <path id="Path_8" data-name="Path 8" class="cls-2" d="M1208.388,445,1200,469.267l22.819,11.008,12.032-4.954-1.9-12.709Z" transform="translate(-1066.039 -443.596)"/>
    <path id="Path_10" data-name="Path 10" class="cls-2" d="M1425.2,571.9l-10.912,25.429-26.431-8.793L1381,575.094,1394.964,568Z" transform="translate(-1208.576 -540.458)"/>
    <path id="Path_12" data-name="Path 12" class="cls-2" d="M1269.335,590.361s-6.624,22.527-6.031,22.407-44.706-9.486-44.706-9.486l-2.6-9.248L1220.965,574Z" transform="translate(-1078.636 -545.183)"/>
    <path id="Path_22" data-name="Path 22" class="cls-3" d="M1284.9,441l-46.825.829,15.766,19.077,1.543,1.9h-.831a1.512,1.512,0,0,1-.712-.118h-3.2a20.721,20.721,0,0,0-7.348,1.422,8.648,8.648,0,0,0-4.386,3.318,6.9,6.9,0,0,0-1.067,4.857,12.811,12.811,0,0,0,2.844,5.925,29.928,29.928,0,0,0,6.284,5.806,50.125,50.125,0,0,0,8.653,4.621,46.906,46.906,0,0,0,9.6,2.844,32.363,32.363,0,0,0,9.484.711,18.676,18.676,0,0,0,7.348-1.659,7.927,7.927,0,0,0,3.913-3.672,7,7,0,0,0,.593-4.977,15.52,15.52,0,0,0-3.2-5.688c-.119-.118-.119-.238-.238-.238-.119-.119-.119-.238-.236-.238a.256.256,0,0,0-.238-.238.411.411,0,0,0-.119-.238,3.428,3.428,0,0,0-1.067-1.066c-.119-.119-.236-.238-.474-.474-.119-.119-.355-.238-.474-.474l2.727-.118,29.162-1.3Z" transform="translate(-1095.775 -440.446)"/>
    <path id="Path_23" data-name="Path 23" class="cls-4" d="M1276.757,495.3a31.642,31.642,0,0,1-7.325-.828,45.634,45.634,0,0,1-9.454-2.837,43.565,43.565,0,0,1-8.392-4.492,28.6,28.6,0,0,1-6.144-5.557,12.624,12.624,0,0,1-2.6-5.44,6.136,6.136,0,0,1,.829-4.138,9.108,9.108,0,0,1,4.016-3.074,22.893,22.893,0,0,1,6.972-1.3h2.363a1.5,1.5,0,0,1,.71.118h.71a1.746,1.746,0,0,1,.826.118l2.363.236-3.073-3.783-14.416-17.5,44.2-.827,25.881,28.966-32.262,1.419,1.772,1.655c.238.118.355.238.593.355l.472.473.471.473c.119.118.474.591.474.591l.591.591.236.238a14.224,14.224,0,0,1,2.954,5.32,6.079,6.079,0,0,1-.472,4.374,7.878,7.878,0,0,1-3.545,3.192,19.02,19.02,0,0,1-6.972,1.537A8.972,8.972,0,0,1,1276.757,495.3Z" transform="translate(-1099.719 -444.384)"/>
  </g>
</svg>
