<svg id="Group_130" data-name="Group 130" xmlns="http://www.w3.org/2000/svg" width="62.249" height="50.196" viewBox="0 0 62.249 50.196">
  <defs>
    <style>
      .cls-1 {
        fill: rgba(0,0,0,0.61);
      }

      .cls-2 {
        fill: #fff;
      }

      .cls-3 {
        fill: #3f3d56;
      }

      .cls-4 {
        fill: #ccc;
      }

      .cls-5 {
        fill: #57b793;
      }

      .cls-17, .cls-6 {
        opacity: 0.1;
      }

      .cls-7 {
        fill: #656380;
      }

      .cls-8 {
        opacity: 0.2;
      }

      .cls-9 {
        fill: #815025;
      }

      .cls-10 {
        opacity: 0.05;
      }

      .cls-11 {
        fill: #965a27;
      }

      .cls-12, .cls-17 {
        fill: #8d5524;
      }

      .cls-13 {
        fill: #d18441;
      }

      .cls-14 {
        fill: rgba(168,98,37,0.98);
      }

      .cls-15 {
        fill: #bb7940;
      }

      .cls-16 {
        fill: #c27b3d;
      }

      .cls-18 {
        fill: #ffc0c6;
      }

      .cls-19 {
        fill: #080808;
      }

      .cls-20 {
        fill: #535070;
      }

      .cls-21 {
        fill: #a91515;
      }

      .cls-22 {
        fill: #b87a43;
      }
    </style>
  </defs>
  <g id="Group_54" data-name="Group 54" transform="translate(23.201)">
    <path id="Path_290" data-name="Path 290" class="cls-1" d="M424.5,240.069h27.917V203.893a13.85,13.85,0,0,0-2.666-8.205c-.064-.087-.128-.174-.194-.259a13.956,13.956,0,0,0-2.971-2.884l-.193-.137a13.924,13.924,0,0,0-3.04-1.59l-.194-.072a13.913,13.913,0,0,0-3-.709c-.064-.009-.129-.015-.194-.022a14.13,14.13,0,0,0-3,0c-.065.007-.13.014-.195.022a13.911,13.911,0,0,0-3,.709l-.194.072a13.891,13.891,0,0,0-3,1.566l-.194.136a14.1,14.1,0,0,0-1.776,1.5,13.94,13.94,0,0,0-1.229,1.406c-.066.085-.13.171-.194.259a13.851,13.851,0,0,0-2.666,8.206Z" transform="translate(-417.287 -189.935)"/>
    <path id="Path_367" data-name="Path 367" class="cls-2" d="M1.546,0A1.546,1.546,0,1,0,3.091,1.546,1.546,1.546,0,0,0,1.546,0Z" transform="translate(15.23 30.863)"/>
    <path id="Path_302" data-name="Path 302" class="cls-3" d="M265.558,707.423H304.48c.035,0,.063-.052.063-.115s-.028-.115-.063-.115H265.558c-.035,0-.063.052-.063.115S265.523,707.423,265.558,707.423Z" transform="translate(-265.495 -657.226)"/>
    <path id="Path_303" data-name="Path 303" class="cls-2" d="M498.128,326.7h12.558a.625.625,0,0,0,.628-.62V298.05a.625.625,0,0,0-.628-.62H498.128a.625.625,0,0,0-.628.62v28.03A.624.624,0,0,0,498.128,326.7Z" transform="translate(-482.061 -287.047)"/>
    <rect id="Rectangle_34" data-name="Rectangle 34" class="cls-4" width="13.814" height="0.193" transform="translate(15.439 19.453)"/>
    <rect id="Rectangle_35" data-name="Rectangle 35" class="cls-4" width="13.814" height="0.193" transform="translate(15.418 30.476)"/>
    <rect id="Rectangle_36" data-name="Rectangle 36" class="cls-4" width="0.193" height="29.366" transform="translate(24.284 10.384)"/>
    <rect id="Rectangle_37" data-name="Rectangle 37" class="cls-4" width="0.193" height="29.366" transform="translate(21.654 10.384)"/>
  </g>
  <g id="Group_56" data-name="Group 56" transform="translate(0 6.238)">
    <ellipse id="Ellipse_56" data-name="Ellipse 56" class="cls-3" cx="31.124" cy="1.435" rx="31.124" ry="1.435" transform="translate(0 41.088)"/>
    <path id="Path_306" data-name="Path 306" class="cls-5" d="M959.552,638.526a.961.961,0,0,1,.478-.786l.215.425-.006-.514a.959.959,0,1,1-.683.875Z" transform="translate(-956.232 -604.874)"/>
    <path id="Path_307" data-name="Path 307" class="cls-5" d="M936.248,726.986a.957.957,0,1,0-.046-.772l.6.487-.659-.153A.957.957,0,0,0,936.248,726.986Z" transform="translate(-931.218 -686.843)"/>
    <path id="Path_308" data-name="Path 308" class="cls-5" d="M941.895,692.562a.957.957,0,0,0,1-.914.945.945,0,0,0-.083-.437.961.961,0,0,0-.615-.532l0,.4-.217-.43h0a.959.959,0,0,0-.09,1.917Z" transform="translate(-936.391 -654.284)"/>
    <path id="Path_309" data-name="Path 309" class="cls-5" d="M975.968,669.9a.958.958,0,1,0-.424-1.792l.169.465-.348-.335a.956.956,0,0,0-.31.662.935.935,0,0,0,.025.264A.957.957,0,0,0,975.968,669.9Z" transform="translate(-972.792 -633.171)"/>
    <path id="Path_310" data-name="Path 310" class="cls-6" d="M959.818,645.914c.221.025.437.094.659.107a.717.717,0,0,0,.607-.213,3.037,3.037,0,0,0,.178-.312.684.684,0,0,1,.241-.228.957.957,0,1,1-1.793.637C959.746,645.908,959.782,645.911,959.818,645.914Z" transform="translate(-956.368 -612.01)"/>
    <path id="Path_311" data-name="Path 311" class="cls-6" d="M975.907,677.367a.957.957,0,0,0,.912-1.367.711.711,0,0,0-.193.193,3.1,3.1,0,0,1-.19.317.782.782,0,0,1-.636.222c-.232-.011-.454-.076-.683-.1-.031,0-.064-.005-.1-.006A.957.957,0,0,0,975.907,677.367Z" transform="translate(-972.731 -640.64)"/>
    <path id="Path_312" data-name="Path 312" class="cls-6" d="M941.855,700.3a.957.957,0,0,0,1-.914.943.943,0,0,0-.083-.437.787.787,0,0,0-.2.195c-.074.105-.121.226-.2.323a.885.885,0,0,1-.679.238c-.245-.006-.466-.064-.7-.081A.961.961,0,0,0,941.855,700.3Z" transform="translate(-936.351 -662.022)"/>
    <path id="Path_313" data-name="Path 313" class="cls-6" d="M935.764,735.286a.958.958,0,1,0,1.749-.786,1,1,0,0,0-.21.188,3.745,3.745,0,0,1-.257.342,1.193,1.193,0,0,1-.794.279A4.083,4.083,0,0,1,935.764,735.286Z" transform="translate(-930.733 -695.143)"/>
    <path id="Path_314" data-name="Path 314" class="cls-7" d="M930.357,761.07a2.769,2.769,0,0,1-.985-.186c-.228-.163-1.162-.357-1.221-.1s-1.138,1.3-.283,1.3a7.378,7.378,0,0,0,2.213-.273C930.309,761.681,930.357,761.07,930.357,761.07Z" transform="translate(-922.931 -719.517)"/>
    <path id="Path_315" data-name="Path 315" class="cls-8" d="M927.85,767.543a7.3,7.3,0,0,0,2.213-.273c.173-.105.243-.484.265-.659h.025s-.048.61-.273.752a7.17,7.17,0,0,1-2.213.273c-.247,0-.332-.09-.327-.22C927.572,767.492,927.667,767.541,927.85,767.543Z" transform="translate(-922.929 -725.059)"/>
    <path id="Path_324" data-name="Path 324" class="cls-6" d="M290.2,650.265a2.337,2.337,0,0,1-4.413-.957,2.307,2.307,0,0,1,.152-.948,2.342,2.342,0,0,1,.512.457,8.97,8.97,0,0,0,.626.831,2.948,2.948,0,0,0,1.936.683A10.043,10.043,0,0,0,290.2,650.265Z" transform="translate(-238.919 -614.889)"/>
    <path id="Path_325" data-name="Path 325" class="cls-9" d="M180.22,518.609l9.02,1.845.205-.021,7.926-.8V509.59l-9.7-1.64-7.038.82,0,.044v.022Z" transform="translate(-147.437 -477.365)"/>
    <path id="Path_326" data-name="Path 326" class="cls-6" d="M296.22,530.4l9.02,1.845.2-.021v-10.3l-8.817-1.322Z" transform="translate(-263.437 -489.15)"/>
    <path id="Path_327" data-name="Path 327" class="cls-10" d="M180.22,508.836l0,0,8.815,1.3,7.926-.547-9.7-1.64-7.038.82,0,.044Z" transform="translate(-147.029 -477.365)"/>
    <path id="Path_328" data-name="Path 328" class="cls-11" d="M325.22,524.609l9.02,1.845.2-.02,7.926-.8V515.59l-9.7-1.64-7.038.82,0,.044v.022Z" transform="translate(-302.344 -482.955)"/>
    <path id="Path_329" data-name="Path 329" class="cls-6" d="M441.22,536.4l9.02,1.845.2-.02v-10.3l-8.817-1.322Z" transform="translate(-418.344 -494.74)"/>
    <path id="Path_330" data-name="Path 330" class="cls-10" d="M325.22,514.836l0,0,8.815,1.3,7.926-.547-9.7-1.64-7.038.82,0,.044Z" transform="translate(-301.937 -482.955)"/>
    <path id="Path_331" data-name="Path 331" class="cls-12" d="M234.22,380.609l9.02,1.845.2-.021,7.926-.8V371.59l-9.7-1.64-7.038.82,0,.044v.022Z" transform="translate(-205.126 -348.794)"/>
    <path id="Path_332" data-name="Path 332" class="cls-6" d="M350.22,392.4l9.02,1.845.2-.02v-10.3l-8.817-1.322Z" transform="translate(-321.126 -360.58)"/>
    <path id="Path_333" data-name="Path 333" class="cls-10" d="M234.22,370.836l0,0,8.815,1.3,7.926-.547-9.7-1.64-7.038.82,0,.044Z" transform="translate(-204.719 -348.794)"/>
    <path id="Path_334" data-name="Path 334" class="cls-13" d="M429.22,456.253l4.707.964.107-.011,4.137-.418v-5.242l-5.064-.856-3.673.428v.034Z" transform="translate(-405.251 -424.017)"/>
    <path id="Path_335" data-name="Path 335" class="cls-6" d="M489.76,462.412l4.707.963.107-.011V457.99l-4.6-.69Z" transform="translate(-465.791 -430.176)"/>
    <path id="Path_336" data-name="Path 336" class="cls-10" d="M429.22,451.153h0l4.6.678,4.137-.286-5.064-.856-3.673.428v.034Z" transform="translate(-405.039 -424.017)"/>
    <path id="Path_337" data-name="Path 337" class="cls-14" d="M244.22,307.253l4.707.963.107-.01,4.137-.418v-5.242l-5.064-.856-3.673.428v.034Z" transform="translate(-207.61 -285.198)"/>
    <path id="Path_338" data-name="Path 338" class="cls-6" d="M304.76,313.412l4.707.963.107-.01V308.99l-4.6-.69Z" transform="translate(-268.15 -291.357)"/>
    <path id="Path_339" data-name="Path 339" class="cls-10" d="M244.22,302.153h0l4.6.678,4.137-.286-5.064-.856-3.673.428v.034Z" transform="translate(-207.398 -285.198)"/>
    <path id="Path_340" data-name="Path 340" class="cls-15" d="M365.22,304.253l4.707.963.107-.01,4.137-.417v-5.242l-5.064-.856-3.673.428v.034Z" transform="translate(-336.878 -282.403)"/>
    <path id="Path_341" data-name="Path 341" class="cls-6" d="M425.76,310.412l4.707.963.107-.01V305.99l-4.6-.69Z" transform="translate(-397.418 -288.562)"/>
    <path id="Path_342" data-name="Path 342" class="cls-10" d="M365.22,299.153h0l4.6.678,4.137-.286-5.064-.856-3.673.428v.034Z" transform="translate(-336.665 -282.403)"/>
    <path id="Path_343" data-name="Path 343" class="cls-16" d="M401.22,227.253l4.707.963.107-.01,4.137-.418v-5.242l-5.064-.856-3.673.428v.034Z" transform="translate(-375.338 -210.665)"/>
    <path id="Path_344" data-name="Path 344" class="cls-17" d="M461.76,233.412l4.707.963.107-.01V228.99l-4.6-.69Z" transform="translate(-435.878 -216.823)"/>
    <path id="Path_345" data-name="Path 345" class="cls-10" d="M401.22,222.153h0l4.6.678,4.137-.286-5.064-.856-3.673.428v.034Z" transform="translate(-375.125 -210.665)"/>
    <path id="Path_346" data-name="Path 346" class="cls-18" d="M700.4,225.491c.05.444.389.8.515,1.23a2.044,2.044,0,0,1-.585,1.845,4.084,4.084,0,0,1-2.844,1.349,1.224,1.224,0,0,1-.47-.051,1.022,1.022,0,0,1-.357-.245,2.285,2.285,0,0,1-.589-1.278,6.831,6.831,0,0,1-.016-1.429.808.808,0,0,1,.053-.288.733.733,0,0,1,.185-.228,4.305,4.305,0,0,1,.8-.579.9.9,0,0,0,.334-.255.836.836,0,0,0,.1-.305l.088-.448a.879.879,0,0,1,.129-.364.9.9,0,0,1,.713-.248l.957-.038a4.575,4.575,0,0,1,.978-.038c.273.054.181.3.132.531A3.836,3.836,0,0,0,700.4,225.491Z" transform="translate(-677.721 -219.62)"/>
    <path id="Path_347" data-name="Path 347" class="cls-6" d="M700.4,225.491c.05.444.389.8.515,1.23a2.044,2.044,0,0,1-.585,1.845,4.084,4.084,0,0,1-2.844,1.349,1.224,1.224,0,0,1-.47-.051,1.022,1.022,0,0,1-.357-.245,2.285,2.285,0,0,1-.589-1.278,6.831,6.831,0,0,1-.016-1.429.808.808,0,0,1,.053-.288.733.733,0,0,1,.185-.228,4.305,4.305,0,0,1,.8-.579.9.9,0,0,0,.334-.255.836.836,0,0,0,.1-.305l.088-.448a.879.879,0,0,1,.129-.364.9.9,0,0,1,.713-.248l.957-.038a4.575,4.575,0,0,1,.978-.038c.273.054.181.3.132.531A3.836,3.836,0,0,0,700.4,225.491Z" transform="translate(-677.721 -219.62)"/>
    <path id="Path_348" data-name="Path 348" class="cls-19" d="M720.674,507.208l.406,4.45c.106,1.167.214,2.339.422,3.491.068.4.156.792.256,1.183a25.2,25.2,0,0,1,.81,3.264c0,.032.008.068.011.1a2.924,2.924,0,0,0,.137.724c.068.17.165.325.235.493a3.235,3.235,0,0,1,.176,1.072,4.621,4.621,0,0,1,1.591-.547,1.178,1.178,0,0,0,.752-.273,1.073,1.073,0,0,0,.147-.863q-.161-1.394-.321-2.786a7.274,7.274,0,0,0-.205-1.184c-.037-.129-.081-.256-.126-.383-.062-.175-.125-.35-.172-.53a6.382,6.382,0,0,1-.135-.877c-.11-.935-.243-1.867-.359-2.8l-.006-.049a28.654,28.654,0,0,1-.268-4.264c.005-.211.014-.422.028-.634.019-.307.047-.469-.205-.661a4.782,4.782,0,0,0-.972-.5,9,9,0,0,0-2.118-.6,3.714,3.714,0,0,0-.137.972A10.824,10.824,0,0,0,720.674,507.208Z" transform="translate(-704.073 -481.332)"/>
    <path id="Path_349" data-name="Path 349" class="cls-6" d="M730.4,606.268c.068.4.156.792.256,1.183a25.2,25.2,0,0,1,.81,3.264c0,.032.007.068.011.1.849-1.212,1.563-2.516,2.391-3.741-.062-.175-.125-.35-.172-.53a6.375,6.375,0,0,1-.142-.882c-.11-.935-.243-1.868-.359-2.8l-.006-.049a2.905,2.905,0,0,1-.205.575c-.556,1.13-1.878,1.7-2.524,2.783Q730.427,606.218,730.4,606.268Z" transform="translate(-712.972 -572.451)"/>
    <path id="Path_350" data-name="Path 350" class="cls-19" d="M689.563,432.97a21.009,21.009,0,0,1-.318,2.7l-.3,1.845a9.454,9.454,0,0,1-.812,2.948,13.606,13.606,0,0,1-1.34,1.863c-1.147,1.494-2.008,3.186-3.1,4.724-.316.447-.768.931-1.307.837a2.114,2.114,0,0,1-.888-.583,5.529,5.529,0,0,1-.981-.8.814.814,0,0,1,.041-1.133,1.888,1.888,0,0,1,.4-.164,2.167,2.167,0,0,0,1.116-1.271,12.091,12.091,0,0,1,.656-1.608c.646-1.082,1.969-1.653,2.525-2.784a5.022,5.022,0,0,0,.365-2.068l.061-1.8a1.31,1.31,0,0,0-.068-.581c-.213-.478-.855-.523-1.375-.584a4.7,4.7,0,0,1-1.686-.532,1.748,1.748,0,0,1-.752-.669,2.149,2.149,0,0,1-.183-.905l-.18-3.259a2.056,2.056,0,0,1,.068-.833,1.738,1.738,0,0,1,1.786-.845,15.332,15.332,0,0,1,3.758,1,9.59,9.59,0,0,0,.931.243,7.554,7.554,0,0,1,.877.122c.47.159.458,1.188.525,1.614A13.541,13.541,0,0,1,689.563,432.97Z" transform="translate(-665.248 -409.09)"/>
    <path id="Path_351" data-name="Path 351" class="cls-20" d="M782.442,699.6a.836.836,0,0,0-.183.449,15.319,15.319,0,0,0-.26,2.713.449.449,0,0,1-.049.246.314.314,0,0,1-.128.1.982.982,0,0,1-1-.307,2.579,2.579,0,0,1-.982-1.744,3.988,3.988,0,0,0-.018-.529,2.2,2.2,0,0,0-.329-.709,6.02,6.02,0,0,1-.547-1.218c-.051-.16-.085-.361.041-.472a.439.439,0,0,1,.148-.077l1.51-.56c.131-.049.456.787.508.879a.692.692,0,0,0,.506.4c.253.052.567-.023.808.106C782.878,699.1,782.673,699.364,782.442,699.6Z" transform="translate(-765.121 -660.662)"/>
    <path id="Path_352" data-name="Path 352" class="cls-20" d="M724.378,732.32a.459.459,0,0,1,.115-.145.515.515,0,0,1,.232-.079.9.9,0,0,1,.826.133c.186.2.154.526.309.752a2.319,2.319,0,0,1,.159.205.768.768,0,0,1,.068.368c.008.348.016.7-.008,1.044a1.456,1.456,0,0,1-.251.825,1.69,1.69,0,0,1-1.287.442l-.379.02a.752.752,0,0,1-.31-.029.509.509,0,0,1-.268-.294c-.2-.491.115-1.019.307-1.511A12.128,12.128,0,0,1,724.378,732.32Z" transform="translate(-704.729 -692.87)"/>
    <path id="Path_353" data-name="Path 353" class="cls-3" d="M687.552,171.118a.31.31,0,0,0-.021-.146c-.055-.1-.2-.068-.31-.044a7.224,7.224,0,0,1-1.356.036,1.071,1.071,0,0,0-1.054.7,3.294,3.294,0,0,1-.836-.858,1.03,1.03,0,0,1-.218-.629,1.235,1.235,0,0,1,.547-.775l.752-.615a1.141,1.141,0,0,1,.338-.215,1.679,1.679,0,0,1,.547-.031c.547,0,1.133-.249,1.62,0a1.728,1.728,0,0,1,.505.459l.672.8a.423.423,0,0,1,.108.182.8.8,0,0,1-.048.29c-.031.178.045.368-.014.538-.1.283-.442.323-.653.486-.078.06-.2.266-.295.263C687.672,171.55,687.557,171.249,687.552,171.118Z" transform="translate(-664.767 -167.751)"/>
    <circle id="Ellipse_57" data-name="Ellipse 57" class="cls-18" cx="2.152" cy="2.152" r="2.152" transform="translate(19.493 1.408)"/>
    <path id="Path_354" data-name="Path 354" class="cls-21" d="M656.479,247.974a1.043,1.043,0,0,1,1.012-.7.3.3,0,0,0,.187-.024.259.259,0,0,0,.077-.1,3.807,3.807,0,0,0,.314-.742c.034-.114.081-.249.2-.278a.264.264,0,0,1,.25.109,2.385,2.385,0,0,0,.179.225c.273.242.752.021,1.038.243.047.036.086.083.137.116a.623.623,0,0,0,.158.068,15.124,15.124,0,0,1,1.632.637,15.337,15.337,0,0,1-.835,3.4c-.213.512-.454,1.015-.625,1.543a11.98,11.98,0,0,0-.4,3.654,7.659,7.659,0,0,0,.273,2.5,2.416,2.416,0,0,1,.154.547.568.568,0,0,1-.193.511.651.651,0,0,1-.3.1,3.862,3.862,0,0,1-1.412-.164,38.036,38.036,0,0,0-3.784-.615l-2.125-.273a1.244,1.244,0,0,1-.44-.114.841.841,0,0,1-.184-1.169c.115-.178.279-.325.376-.513a.476.476,0,0,0-.062-.584c-.342-.267-.239-.761-.256-1.192q-.068-1.812.018-3.621a7.1,7.1,0,0,0,.012-.752,6.632,6.632,0,0,0-.234-1.255L651,247a1.325,1.325,0,0,1,.8-.512c.305-.077.625-.1.926-.193.615-.191,1.167-.676,1.811-.631a.332.332,0,0,1,.141.034c.145.083.122.292.131.458a1.269,1.269,0,0,0,.592.894,10.688,10.688,0,0,1,.918.62A.41.41,0,0,1,656.479,247.974Z" transform="translate(-635.338 -239.703)"/>
    <path id="Path_355" data-name="Path 355" class="cls-18" d="M587.74,303.928a2.527,2.527,0,0,0,.452.233,1.5,1.5,0,0,1,.434.21.687.687,0,0,1,.151.187.829.829,0,0,1-.764,1.235,1.665,1.665,0,0,1-.565-.169l-1.518-.661a1.193,1.193,0,0,1-.656-.494.119.119,0,0,1-.015-.079.129.129,0,0,1,.063-.068,3.4,3.4,0,0,0,.883-.834c.062-.085.137-.284.227-.335C586.753,302.975,587.482,303.762,587.74,303.928Z" transform="translate(-558.07 -293.246)"/>
    <path id="Path_356" data-name="Path 356" class="cls-18" d="M788.233,307l-.56.64c-.12.137-.24.273-.35.421a4.9,4.9,0,0,0-.641,1.207,2.111,2.111,0,0,0-.18,1,2.457,2.457,0,0,0,.14.508,6.276,6.276,0,0,0,.381.916,5.222,5.222,0,0,0,.426.64,14.981,14.981,0,0,0,1.419,1.623,1.827,1.827,0,0,1,.355.752,3.141,3.141,0,0,0,.872,1.189,2.4,2.4,0,0,0,.375.323,1.216,1.216,0,0,0,.683.194.751.751,0,0,0,.307-.064.793.793,0,0,0,.39-.661,1.414,1.414,0,0,0-.117-.708c-.321-.711-1.146-1.02-1.729-1.539a5.642,5.642,0,0,1-.862-1.065,3.693,3.693,0,0,1-.435-.763c-.13-.348-.079-.759-.193-1.112-.048-.15-.137-.284-.185-.432a.512.512,0,0,1,.026-.452.652.652,0,0,1,.253-.186c.372-.189.789-.432.86-.844a.9.9,0,0,0-.167-.644,2.663,2.663,0,0,0-.469-.492C788.67,307.3,788.4,307.141,788.233,307Z" transform="translate(-774.793 -296.854)"/>
    <path id="Path_357" data-name="Path 357" class="cls-18" d="M559.113,320.2a1.036,1.036,0,0,1,.422-.5.776.776,0,0,1,.615,0,2.331,2.331,0,0,1,.538.325l.482.356a1.186,1.186,0,0,1,.286.264,1.1,1.1,0,0,1,.149.41,2.979,2.979,0,0,1,.076,1.012,2.879,2.879,0,0,1-.765,1.435,1.278,1.278,0,0,1-.847.531.389.389,0,0,1-.375-.189.467.467,0,0,1-.033-.168,3.746,3.746,0,0,1,.433-1.752,1.085,1.085,0,0,0,.137-.471.128.128,0,0,0-.021-.079.132.132,0,0,0-.082-.04c-.346-.068-.944.2-1.186-.184C558.785,320.891,559,320.423,559.113,320.2Z" transform="translate(-529.084 -308.622)"/>
    <path id="Path_358" data-name="Path 358" class="cls-3" d="M685.913,161.208a.318.318,0,0,0-.022-.146c-.055-.1-.2-.068-.31-.044a7.224,7.224,0,0,1-1.356.036,1.071,1.071,0,0,0-1.054.7,3.315,3.315,0,0,1-.836-.858,1.033,1.033,0,0,1-.218-.629,1.234,1.234,0,0,1,.547-.774l.752-.615a1.137,1.137,0,0,1,.337-.215,1.681,1.681,0,0,1,.547-.031c.547,0,1.133-.249,1.62,0a1.729,1.729,0,0,1,.5.459l.672.8a.425.425,0,0,1,.107.182.8.8,0,0,1-.049.29c-.031.178.045.368-.014.538-.1.284-.442.324-.652.487-.078.06-.2.266-.295.263C686.034,161.64,685.919,161.339,685.913,161.208Z" transform="translate(-663.014 -158.518)"/>
    <path id="Path_359" data-name="Path 359" class="cls-21" d="M619.707,274.456a.893.893,0,0,1,.226.21c.079.12.095.273.163.4.145.269.484.366.7.586a.217.217,0,0,1,.068.115.253.253,0,0,1-.057.165l-1.021,1.6c-.342.03-.666-.183-1.006-.154a1.014,1.014,0,0,1-.379.016,1.1,1.1,0,0,1-.243-.148c-.2-.128-.473-.143-.643-.312a.86.86,0,0,1-.182-.647,2.555,2.555,0,0,1,.061-.594,7.324,7.324,0,0,1,.916-1.634c.144-.266.222-.421.526-.238S619.42,274.246,619.707,274.456Z" transform="translate(-592.237 -265.868)"/>
    <path id="Path_360" data-name="Path 360" class="cls-21" d="M791.95,264.948a2.4,2.4,0,0,0-.514.45c-.155.2-.243.446-.393.651a7.112,7.112,0,0,1-.506.536,4.084,4.084,0,0,0-.584.95,14.26,14.26,0,0,0,1.32,1.49.423.423,0,0,0,.2.131.322.322,0,0,0,.283-.115c.074-.077.126-.172.2-.252a1.008,1.008,0,0,1,.624-.3,4.286,4.286,0,0,1,.707-.01.273.273,0,0,0,.151-.025.249.249,0,0,0,.082-.094,2.35,2.35,0,0,0,.09-1.6l-.223-1.23a2.764,2.764,0,0,0-.187-.683c-.085-.181-.273-.489-.507-.434S792.147,264.806,791.95,264.948Z" transform="translate(-776.875 -257.171)"/>
    <path id="Path_361" data-name="Path 361" class="cls-12" d="M274.22,230.253l4.707.963.107-.01,4.137-.417v-5.242l-5.064-.856-3.673.428v.034Z" transform="translate(-239.66 -213.46)"/>
    <path id="Path_362" data-name="Path 362" class="cls-17" d="M334.76,236.412l4.707.963.107-.01V231.99l-4.6-.69Z" transform="translate(-300.2 -219.618)"/>
    <path id="Path_363" data-name="Path 363" class="cls-10" d="M274.22,225.153h0l4.6.678,4.137-.286-5.064-.856-3.673.428v.034Z" transform="translate(-239.447 -213.46)"/>
    <path id="Path_364" data-name="Path 364" class="cls-22" d="M310.22,154.253l4.707.963.107-.011,4.137-.418v-5.242l-5.064-.856-3.673.428v.034Z" transform="translate(-278.12 -142.653)"/>
    <path id="Path_365" data-name="Path 365" class="cls-6" d="M370.76,160.412l4.707.963.107-.011V155.99l-4.6-.69Z" transform="translate(-338.66 -148.811)"/>
    <path id="Path_366" data-name="Path 366" class="cls-10" d="M310.22,149.153h0l4.6.678,4.137-.286-5.064-.856-3.673.428v.034Z" transform="translate(-277.907 -142.653)"/>
  </g>
</svg>
