<svg xmlns="http://www.w3.org/2000/svg" width="24.641" height="24.017" viewBox="0 0 24.641 24.017">
  <path id="Icon_awesome-arrow-right" data-name="Icon awesome-arrow-right" d="M10.477,4.256,11.7,3.035a1.314,1.314,0,0,1,1.864,0L24.253,13.721a1.314,1.314,0,0,1,0,1.864L13.562,26.276a1.314,1.314,0,0,1-1.864,0l-1.221-1.221a1.321,1.321,0,0,1,.022-1.886l6.627-6.314H1.32A1.317,1.317,0,0,1,0,15.536v-1.76a1.317,1.317,0,0,1,1.32-1.32H17.126L10.5,6.142A1.312,1.312,0,0,1,10.477,4.256Z" transform="translate(0 -2.647)" fill="#fff"/>
</svg>
